<?xml version="1.0" standalone="no"?>
<!DOCTYPE svg PUBLIC "-//W3C//DTD SVG 20010904//EN"
 "http://www.w3.org/TR/2001/REC-SVG-20010904/DTD/svg10.dtd">
<svg version="1.0" xmlns="http://www.w3.org/2000/svg"
 width="174.000000pt" height="130.000000pt" viewBox="0 0 174.000000 130.000000"
 preserveAspectRatio="xMidYMid meet">

<g transform="translate(0.000000,130.000000) scale(0.100000,-0.100000)"
fill="#000000" stroke="none">
<path d="M770 1066 c-125 -36 -222 -116 -281 -233 -33 -66 -34 -72 -34 -183 0
-111 1 -117 34 -183 59 -118 174 -212 285 -232 l36 -7 0 146 0 146 -60 0 -61
0 3 68 3 67 58 3 57 3 0 75 c0 87 16 124 67 155 38 24 115 34 163 22 35 -9 35
-10 35 -64 l0 -54 -50 -3 c-62 -4 -75 -19 -75 -86 l0 -51 51 4 c28 1 55 -1 60
-6 5 -5 4 -35 -2 -71 l-11 -62 -49 0 -49 0 0 -146 0 -146 33 7 c128 26 249
137 302 280 39 104 17 275 -47 369 -105 154 -299 229 -468 182z"/>
</g>
</svg>
